<svg width="648" height="648" viewBox="0 0 648 648" fill="none" xmlns="http://www.w3.org/2000/svg">
<path d="M289.88 165.66C288.26 163.58 286.53 162.42 284.44 162.42C282.94 162.54 281.55 163 280.28 163.81C264.9 175.84 243.96 226.85 226.73 294.16L242 294.28C272.07 294.63 303.19 294.97 333.84 295.44C325.74 264.67 318.11 238.3 311.05 216.91C300.75 185.78 293.81 171.79 289.88 165.66Z" fill="black"/>
<path d="M324 36C164.96 36 36 164.96 36 324C36 483.04 164.96 612 324 612C483.04 612 612 483.04 612 324C612 164.96 483.04 36 324 36ZM536.59 320.53C535.78 323.77 533.81 326.89 531.04 329.2C530.69 329.43 530.35 329.66 530 329.89L529.65 330.12L528.96 330.58L528.38 330.93C526.18 332.09 523.75 332.66 521.21 332.66H384.72C385.76 337.17 387.03 342.38 388.31 347.93C395.83 380.2 415.61 466.02 436.77 466.02H437.23H437.46H437.92C454.34 466.02 462.79 442.19 481.29 390.03L481.52 389.45C484.53 381.12 487.88 371.64 491.47 361.57L492.4 359.03C493.79 355.68 497.6 353.94 500.96 355.33C503.39 356.26 505.12 358.68 505.12 361.34C505.12 362.03 505 362.61 504.89 363.19L504.08 365.73C502.11 371.98 500.15 380.42 497.72 390.25C486.73 435.82 470.08 504.64 427.51 504.64H427.16C399.63 504.41 383.21 460.46 376.15 441.6C362.96 406.44 353.02 369.08 343.42 332.76H218.05L192.03 416.15L191.68 415.8C187.75 421.93 179.54 423.78 173.41 419.85C169.59 417.42 167.28 413.26 167.28 408.75V408.29L168.9 398.81C172.49 377.41 176.88 355.09 181.74 332.65H128.54L128.31 332.42C117.44 330.8 109.92 320.62 111.54 309.75C112.81 301.31 119.29 294.6 127.62 293.09C129.7 292.86 131.78 292.74 133.87 292.86H136.41C153.18 293.09 170.99 293.44 190.66 293.67C218.3 181.25 250.34 124.11 285.97 123.99C324.14 123.99 352.48 210.85 375.15 295.86L375.27 296.21C421.77 297.14 471.5 298.52 519.73 301.99L521.81 302.22C522.62 302.22 523.31 302.34 524.12 302.45H524.35L524.58 302.57H524.7C532.89 304.22 538.32 312.32 536.59 320.53Z" fill="black"/>
</svg>
