<?xml version="1.0" encoding="utf-8"?>
<!-- Generator: Adobe Illustrator 25.4.1, SVG Export Plug-In . SVG Version: 6.00 Build 0)  -->
<svg version="1.1" id="Layer_1" xmlns="http://www.w3.org/2000/svg" xmlns:xlink="http://www.w3.org/1999/xlink" x="0px" y="0px"
	 viewBox="0 0 648 648" style="enable-background:new 0 0 648 648;" xml:space="preserve">
<path d="M304.27,172.92c10.68,32.38,22.23,72.28,34.48,118.84c-46.38-0.7-93.46-1.22-138.97-1.75l-23.1-0.17
	c26.08-101.86,57.76-179.05,81.04-197.25c1.93-1.22,4.03-1.92,6.3-2.1c3.15,0,5.78,1.75,8.23,4.9
	C278.19,104.66,288.7,125.84,304.27,172.92z M627.54,302.61h-0.17l-0.35-0.17h-0.35c-1.22-0.17-2.28-0.35-3.5-0.35l-3.15-0.35
	c-72.98-5.25-148.24-7.35-218.6-8.75l-0.18-0.52c-34.3-128.64-77.18-260.08-134.94-260.08c-53.91,0.17-102.39,86.64-144.22,256.76
	c-29.75-0.35-56.71-0.87-82.09-1.22h-3.85c-3.15-0.17-6.3,0-9.45,0.35c-12.6,2.28-22.4,12.43-24.33,25.2
	c-2.45,16.45,8.93,31.85,25.38,34.3l0.35,0.35h80.51c-7.35,33.95-14,67.73-19.43,100.11l-2.45,14.35v0.7c0,6.83,3.5,13.13,9.28,16.8
	c9.28,5.95,21.7,3.15,27.65-6.13l0.52,0.52l39.38-126.19h189.72c14.53,54.96,29.58,111.49,49.53,164.7
	c10.68,28.53,35.53,95.04,77.18,95.39h0.53c64.41,0,89.61-104.14,106.24-173.1c3.68-14.88,6.65-27.65,9.63-37.1l1.22-3.85
	c0.17-0.87,0.35-1.75,0.35-2.8c0-4.03-2.63-7.7-6.3-9.1c-5.08-2.1-10.85,0.52-12.95,5.6l-1.4,3.85
	c-5.43,15.23-10.5,29.58-15.05,42.18l-0.35,0.87c-28,78.94-40.78,114.99-65.63,114.99h-0.7h-0.35h-0.7
	c-32.03,0-61.96-129.87-73.33-178.7c-1.93-8.4-3.85-16.28-5.43-23.1h206.53c3.85,0,7.53-0.88,10.85-2.63l0.87-0.52l1.05-0.7
	l0.53-0.35c0.52-0.35,1.05-0.7,1.57-1.05c4.2-3.5,7.18-8.23,8.4-13.13C648.19,317.32,639.97,305.06,627.54,302.61z"/>
</svg>
